<svg width="40" height="40" viewBox="0 0 40 40" fill="none" xmlns="http://www.w3.org/2000/svg">
<path d="M27.3401 27H20.3401L16.0301 30.21V27H12.8101V15.49H27.3401V27Z" fill="#22D081"/>
<path d="M16.4803 22.21C17.016 22.21 17.4503 21.7757 17.4503 21.24C17.4503 20.7043 17.016 20.27 16.4803 20.27C15.9445 20.27 15.5103 20.7043 15.5103 21.24C15.5103 21.7757 15.9445 22.21 16.4803 22.21Z" fill="#3C0050"/>
<path d="M20.0701 22.21C20.6058 22.21 21.0401 21.7757 21.0401 21.24C21.0401 20.7043 20.6058 20.27 20.0701 20.27C19.5344 20.27 19.1001 20.7043 19.1001 21.24C19.1001 21.7757 19.5344 22.21 20.0701 22.21Z" fill="#3C0050"/>
<path d="M23.6702 22.21C24.2059 22.21 24.6402 21.7757 24.6402 21.24C24.6402 20.7043 24.2059 20.27 23.6702 20.27C23.1345 20.27 22.7002 20.7043 22.7002 21.24C22.7002 21.7757 23.1345 22.21 23.6702 22.21Z" fill="#3C0050"/>
<path d="M6.62988 18.35C6.62988 18.15 6.62988 18.09 6.62988 17.89C6.62988 10.49 12.6199 4.5 20.0199 4.5C27.4199 4.5 33.4099 10.49 33.4099 17.89C33.4099 18.09 33.4099 18.15 33.3999 18.35" stroke="#3C0050" stroke-width="1.3" stroke-linecap="round" stroke-linejoin="round"/>
<path d="M21.29 32.4099H25.4V35.4999H21.29C20.44 35.4999 19.75 34.8099 19.75 33.9599C19.75 33.1099 20.44 32.4199 21.29 32.4199V32.4099Z" fill="white" stroke="#3C0050" stroke-width="1.3" stroke-linecap="round" stroke-linejoin="round"/>
<path d="M25.4102 33.95H29.2402C31.4502 33.95 33.2402 32.16 33.2402 29.95V25.74" stroke="#3C0050" stroke-width="1.3" stroke-linecap="round" stroke-linejoin="round"/>
<path d="M6.52002 16.74H9.00002V25.74H6.52002C5.42002 25.74 4.52002 24.84 4.52002 23.74V18.74C4.52002 17.64 5.42002 16.74 6.52002 16.74Z" fill="white" stroke="#3C0050" stroke-width="1.3" stroke-linecap="round" stroke-linejoin="round"/>
<path d="M33.48 25.74H31V16.74H33.48C34.58 16.74 35.48 17.64 35.48 18.74V23.74C35.48 24.84 34.58 25.74 33.48 25.74Z" fill="white" stroke="#3C0050" stroke-width="1.3" stroke-linecap="round" stroke-linejoin="round"/>
</svg>
