<svg width="40" height="40" viewBox="0 0 40 40" fill="none" xmlns="http://www.w3.org/2000/svg">
<path d="M27.31 10.87V33.42H15.39H5.02002V4.5H20.93V10.87H27.31Z" fill="white"/>
<path d="M27.3102 10.87L20.9402 4.5L20.9302 10.87H27.3102Z" fill="#22D081" stroke="#3C0050" stroke-width="1.3" stroke-linecap="round" stroke-linejoin="round"/>
<path d="M18.97 33.42H5.02002V4.5H20.93V10.87H27.31V17.52" stroke="#3C0050" stroke-width="1.3" stroke-linecap="round" stroke-linejoin="round"/>
<path d="M8.95996 10.6001H15.69" stroke="#3C0050" stroke-width="1.3" stroke-linecap="round" stroke-linejoin="round"/>
<path d="M8.95996 16.1399H22.46" stroke="#3C0050" stroke-width="1.3" stroke-linecap="round" stroke-linejoin="round"/>
<path d="M8.95996 21.6799H16.92" stroke="#3C0050" stroke-width="1.3" stroke-linecap="round" stroke-linejoin="round"/>
<path d="M27.3099 35.4899C31.5514 35.4899 34.9899 32.0514 34.9899 27.8099C34.9899 23.5683 31.5514 20.1299 27.3099 20.1299C23.0683 20.1299 19.6299 23.5683 19.6299 27.8099C19.6299 32.0514 23.0683 35.4899 27.3099 35.4899Z" fill="#22D081"/>
<path d="M24.1699 28.2801L25.9499 30.0601L30.4599 25.5601" stroke="#3C0050" stroke-width="1.3" stroke-linecap="round" stroke-linejoin="round"/>
</svg>
