<svg width="40" height="40" viewBox="0 0 40 40" fill="none" xmlns="http://www.w3.org/2000/svg">
<path d="M29.0098 10.64V32.38H17.5198H7.50977V4.5H22.8598V10.64H29.0098Z" fill="white"/>
<path d="M29.0099 10.64L22.8599 4.5V10.64H29.0099Z" fill="#22D081" stroke="#3C0050" stroke-width="1.3" stroke-linecap="round" stroke-linejoin="round"/>
<path d="M27.8299 35.4899C32.0714 35.4899 35.5099 32.0514 35.5099 27.8099C35.5099 23.5683 32.0714 20.1299 27.8299 20.1299C23.5884 20.1299 20.1499 23.5683 20.1499 27.8099C20.1499 32.0514 23.5884 35.4899 27.8299 35.4899Z" fill="#22D081"/>
<path d="M17.5198 32.38H7.50977V4.5H22.8598V10.64H29.0098V17.06" stroke="#3C0050" stroke-width="1.3" stroke-linecap="round" stroke-linejoin="round"/>
<path d="M13.57 35.5001H4.47998V12.8301" stroke="#3C0050" stroke-width="1.3" stroke-linecap="round" stroke-linejoin="round"/>
<path d="M11.3101 10.3899H17.8001" stroke="#3C0050" stroke-width="1.3" stroke-linecap="round" stroke-linejoin="round"/>
<path d="M11.3101 15.72H24.3301" stroke="#3C0050" stroke-width="1.3" stroke-linecap="round" stroke-linejoin="round"/>
<path d="M11.3101 21.0601H18.9901" stroke="#3C0050" stroke-width="1.3" stroke-linecap="round" stroke-linejoin="round"/>
<path d="M31.0991 27.8149H24.5513" stroke="#3C0050" stroke-width="1.3" stroke-linecap="round" stroke-linejoin="round"/>
</svg>
