<svg width="40" height="40" viewBox="0 0 40 40" fill="none" xmlns="http://www.w3.org/2000/svg">
<path d="M30.1701 28.1C31.6001 26.25 32.3601 23.96 32.3601 21.61V8.47001C28.0101 8.65001 23.9301 7.10001 20.0001 4.51001C16.0701 7.10001 11.9901 8.65001 7.64014 8.47001V21.61C7.64014 23.95 8.40014 26.24 9.83014 28.1C11.7601 30.6 16.9801 33.94 19.1001 35.24C19.6601 35.58 20.3501 35.58 20.9101 35.24C23.0201 33.94 28.2501 30.6 30.1801 28.1H30.1701Z" fill="white" stroke="#3C0050" stroke-width="1.3" stroke-linecap="round" stroke-linejoin="round"/>
<path d="M20.1001 27.46C24.6454 27.46 28.3301 23.7753 28.3301 19.23C28.3301 14.6847 24.6454 11 20.1001 11C15.5548 11 11.8701 14.6847 11.8701 19.23C11.8701 23.7753 15.5548 27.46 20.1001 27.46Z" fill="#22D081"/>
<path d="M16.0103 19.8401L18.3303 22.1601L24.1803 16.3101" stroke="#3C0050" stroke-width="1.3" stroke-linecap="round" stroke-linejoin="round"/>
</svg>
